<?xml version="1.0" encoding="utf-8"?>
<!-- Generator: Adobe Illustrator 16.0.0, SVG Export Plug-In . SVG Version: 6.00 Build 0)  -->
<!DOCTYPE svg PUBLIC "-//W3C//DTD SVG 1.1//EN" "http://www.w3.org/Graphics/SVG/1.1/DTD/svg11.dtd">
<svg version="1.1" id="Capa_1" xmlns="http://www.w3.org/2000/svg" xmlns:xlink="http://www.w3.org/1999/xlink" x="0px" y="0px"
	 width="960px" height="560px" viewBox="0 0 960 560" enable-background="new 0 0 960 560" xml:space="preserve">
<g>
	<g>
		<g>
			<g>
				<g>
					<path fill="#FFFFFF" d="M220.258,393.467h-12.613v10.682H205V381.28h2.645v9.637h12.613v-9.637h2.679v22.869h-2.679V393.467z"
						/>
					<path fill="#FFFFFF" d="M241.001,381.28h15.389v2.484h-12.743v7.187h9.936v2.479h-9.936v8.235h12.809v2.484h-15.454V381.28z"/>
					<path fill="#FFFFFF" d="M281.215,395.166c-0.491,0.031-1.603,0.031-2.092,0.031h-2.808v8.952h-2.648V381.28h6.991
						c5.358,0,8.529,2.645,8.529,7.12c0,3.53-1.993,5.589-5.228,6.276l5.654,9.474h-3.204L281.215,395.166z M280.92,392.976
						c3.335,0,5.557-1.176,5.557-4.479c0-3.233-2.157-4.767-5.719-4.767h-4.442v9.247H280.92z"/>
					<path fill="#FFFFFF" d="M309.048,385.559h-0.065c0,0.032,0.065,2.645,0.065,5.489v13.102H306.4V381.28h2.682l13.394,18.426
						h0.067c0-0.034-0.067-2.715-0.067-5.36V381.28h2.682v22.869h-2.713L309.048,385.559z"/>
					<path fill="#FFFFFF" d="M346.844,398.072l-2.546,6.077h-2.844l9.733-22.869h2.912l9.735,22.869h-2.844l-2.546-6.077H346.844z
						 M354.916,389.673c-0.885-2.091-2.223-5.324-2.254-5.36h-0.067c-0.034,0.036-1.374,3.269-2.22,5.328l-2.517,6.013h9.573
						L354.916,389.673z M350.895,379.513l3.402-5.26l2.186,0.717l-3.102,4.542H350.895z"/>
					<path fill="#FFFFFF" d="M382.846,385.559h-0.065c0,0.032,0.065,2.645,0.065,5.489v13.102h-2.648V381.28h2.682l13.394,18.426
						h0.068c0-0.034-0.068-2.715-0.068-5.36V381.28h2.682v22.869h-2.715L382.846,385.559z"/>
					<path fill="#FFFFFF" d="M424.921,381.28c7.09,0,12.156,4.475,12.156,11.531c0,7.058-5.1,11.338-11.926,11.338h-8.138V381.28
						H424.921z M425.021,401.665c5.095,0,9.375-2.907,9.375-8.854c0-5.915-4.244-9.047-9.571-9.047h-5.163v17.9H425.021z"/>
					<path fill="#FFFFFF" d="M453.894,381.28h15.394v2.484h-12.744v7.187h9.934v2.479h-9.934v8.235h12.809v2.484h-15.459V381.28z"/>
					<path fill="#FFFFFF" d="M491.496,398.627c-1.928,2.29-2.677,2.974-2.677,3.007l0.063,0.065c0.037,0,1.18-0.035,2.849-0.035
						h12.313v2.484h-18.619v-2.45l12.802-15.096c1.666-1.926,2.522-2.742,2.522-2.781l-0.037-0.093
						c-0.032,0-1.074,0.035-2.776,0.035h-12.188v-2.484h18.295v2.542L491.496,398.627z"/>
					<path fill="#FFFFFF" d="M549.781,395.166c-0.493,0.031-1.604,0.031-2.092,0.031h-2.81v8.952h-2.646V381.28h6.991
						c5.355,0,8.526,2.645,8.526,7.12c0,3.53-1.99,5.589-5.224,6.276l5.649,9.474h-3.205L549.781,395.166z M549.485,392.976
						c3.335,0,5.557-1.176,5.557-4.479c0-3.233-2.162-4.767-5.717-4.767h-4.447v9.247H549.485z"/>
					<path fill="#FFFFFF" d="M578.758,398.072l-2.549,6.077h-2.846l9.738-22.869h2.908l9.738,22.869h-2.848l-2.544-6.077H578.758z
						 M586.827,389.673c-0.886-2.091-2.223-5.324-2.252-5.36h-0.07c-0.032,0.036-1.374,3.269-2.225,5.328l-2.512,6.013h9.576
						L586.827,389.673z"/>
					<path fill="#FFFFFF" d="M630.631,393.855c0-3.526,0.097-8.232,0.097-8.264h-0.063c-0.034,0.032-0.917,1.862-2.97,5.523
						l-4.183,7.415h-1.606l-4.15-7.319c-2.123-3.757-2.969-5.587-3.003-5.619h-0.067c0,0.032,0.067,4.738,0.067,8.264v10.294h-2.647
						V381.28h2.81l7.776,13.917h0.063l7.808-13.917h2.747v22.869h-2.68V393.855z"/>
					<path fill="#FFFFFF" d="M650.985,379.513l3.393-5.26l2.191,0.717l-3.1,4.542H650.985z M651.377,381.28h2.646v22.869h-2.646
						V381.28z"/>
					<path fill="#FFFFFF" d="M679.665,395.166c-0.491,0.031-1.601,0.031-2.089,0.031h-2.81v8.952h-2.648V381.28h6.991
						c5.356,0,8.529,2.645,8.529,7.12c0,3.53-1.99,5.589-5.226,6.276l5.649,9.474h-3.202L679.665,395.166z M679.374,392.976
						c3.333,0,5.555-1.176,5.555-4.479c0-3.233-2.162-4.767-5.721-4.767h-4.442v9.247H679.374z"/>
					<path fill="#FFFFFF" d="M704.852,381.28h15.389v2.484H707.5v7.187h9.932v2.479H707.5v8.235h12.809v2.484h-15.457V381.28z"/>
					<path fill="#FFFFFF" d="M742.455,398.627c-1.93,2.29-2.682,2.974-2.682,3.007l0.065,0.065c0.031,0,1.175-0.035,2.841-0.035H755
						v2.484h-18.625v-2.45l12.809-15.096c1.667-1.926,2.515-2.742,2.515-2.781l-0.029-0.093c-0.034,0-1.083,0.035-2.781,0.035
						h-12.19v-2.484H755v2.542L742.455,398.627z"/>
				</g>
			</g>
			<g>
				<path fill="#FFFFFF" d="M345.616,450.709l-1.731,4.574h-4.8l9.148-22.87h5.126l9.153,22.87h-4.868l-1.734-4.574H345.616z
					 M352.415,441.563c-0.786-1.961-1.569-3.989-1.601-4.022h-0.101c-0.032,0.033-0.815,2.031-1.604,4.022l-1.924,5.028h7.124
					L352.415,441.563z"/>
				<path fill="#FFFFFF" d="M391.258,443.096c2.155,0.556,4.479,2.288,4.479,5.622c0,3.629-2.616,6.565-8.071,6.565h-9.508v-22.87
					h9.312c4.149,0,6.926,2.647,6.926,5.849c0,2.713-1.794,4.246-3.137,4.703V443.096z M386.683,441.692
					c1.865,0,3.139-1.014,3.139-2.745c0-1.599-1.209-2.744-3.238-2.744h-3.886v5.489H386.683z M387.273,451.495
					c2.318,0,3.689-1.177,3.689-3.136c0-2.061-1.566-3.235-3.689-3.235h-4.576v6.371H387.273z"/>
				<path fill="#FFFFFF" d="M422.716,431.955c6.892,0,11.992,4.837,11.992,11.896c0,7.023-5.1,11.858-11.992,11.858
					c-6.894,0-11.991-4.835-11.991-11.858C410.725,436.792,415.822,431.955,422.716,431.955z M422.716,451.43
					c4.215,0,7.414-2.909,7.414-7.58c0-4.674-3.199-7.614-7.414-7.614c-4.217,0-7.419,2.94-7.419,7.614
					C415.297,448.486,418.499,451.43,422.716,451.43z"/>
				<path fill="#FFFFFF" d="M468.91,455.283c0-1.729,0.029-1.959,0.029-2.186h-0.094c-1.209,1.208-3.828,2.611-7.095,2.611
					c-6.403,0-11.76-4.736-11.76-11.896c0-7.056,5.064-11.858,11.861-11.858c5.192,0,9.08,2.878,10.553,6.47l-4.476,1.242
					c-0.82-1.471-2.713-3.431-6.272-3.431c-4.249,0-7.092,3.004-7.092,7.577c0,4.643,3.104,7.617,7.547,7.617
					c3.53,0,5.85-1.732,6.6-2.944v-1.795h-6.075v-4.246h10.323v12.839H468.91z"/>
				<path fill="#FFFFFF" d="M494.683,450.709l-1.729,4.574h-4.807l9.15-22.87h5.131l9.15,22.87h-4.867l-1.734-4.574H494.683z
					 M501.48,441.563c-0.789-1.961-1.567-3.989-1.601-4.022h-0.099c-0.029,0.033-0.817,2.031-1.606,4.022l-1.92,5.028h7.122
					L501.48,441.563z"/>
				<path fill="#FFFFFF" d="M536.367,432.414c6.899,0,12.059,4.574,12.059,11.533c0,6.993-5.201,11.336-11.992,11.336h-9.211v-22.87
					H536.367z M536.174,451.073c3.979,0,7.675-2.127,7.675-7.126c0-4.968-3.695-7.318-7.743-7.318h-4.348v14.445H536.174z"/>
				<path fill="#FFFFFF" d="M575.703,431.955c6.892,0,11.992,4.837,11.992,11.896c0,7.023-5.1,11.858-11.992,11.858
					c-6.899,0-11.989-4.835-11.989-11.858C563.714,436.792,568.804,431.955,575.703,431.955z M575.703,451.43
					c4.215,0,7.414-2.909,7.414-7.58c0-4.674-3.199-7.614-7.414-7.614c-4.22,0-7.421,2.94-7.421,7.614
					C568.282,448.486,571.483,451.43,575.703,451.43z"/>
				<path fill="#FFFFFF" d="M607.125,448.292c0.36,2.252,2.353,3.43,5.162,3.43c2.486,0,4.02-0.947,4.02-2.842
					c0-2.71-3.068-2.677-5.915-3.367c-3.103-0.717-6.991-2.057-6.991-6.826c0-4.443,3.333-6.732,8.364-6.732
					c4.51,0,7.777,1.864,8.986,5.881l-4.343,1.143c-0.594-1.926-2.091-3.006-4.737-3.006c-2.522,0-3.625,0.981-3.625,2.583
					c0,2.289,2.416,2.711,5.617,3.364c3.393,0.658,7.252,1.962,7.252,6.961c0,4.54-3.205,6.828-8.628,6.828
					c-3.917,0-8.396-1.207-9.503-6.237L607.125,448.292z"/>
			</g>
		</g>
	</g>
	<g>
		<path fill="#FFFFFF" d="M326.725,106.666V315.19l-42.342,2.375v-3.564c6.333-1.709,11.738-5.145,16.221-10.288
			c4.222-5.007,6.993-10.88,8.311-17.603c1.315-6.598,1.978-18.071,1.978-34.431v-91.2c0-19.392-2.508-32.579-7.516-39.57
			c-4.882-6.99-11.213-11.345-18.995-13.056v-3.563C292.561,105.349,306.674,106.14,326.725,106.666z M451.294,215.871H350.788
			v48.08c0,18.596,2.633,31.131,7.912,37.588c5.409,6.462,11.936,10.617,19.585,12.461v3.564
			c-16.354-1.321-30.929-2.109-43.723-2.375V106.666c11.605,0,26.182-0.79,43.723-2.375v3.563
			c-10.42,2.899-17.607,8.376-21.563,16.422c-3.954,8.044-5.934,21.96-5.934,41.746v33.035h100.506V215.871z"/>
		<path fill="#FFFFFF" d="M467.244,106.666V315.19h-8.502c-3.303,0-8.509,0.397-15.63,1.187c-6.072,0.79-13.194,1.188-21.37,1.188
			v-3.564c8.444-0.917,15.433-5.069,20.971-12.461c5.545-7.388,8.313-21.628,8.313-42.731V157.114
			c0-28.75-9.762-45.171-29.284-49.261v-3.563C430.186,105.217,445.353,106.008,467.244,106.666z"/>
		<path fill="#FFFFFF" d="M673.254,294.021c-3.431,2.249-6.795,3.361-10.089,3.361c-16.218,0-37.191-13.051-62.915-39.171
			c-16.881-17.015-29.478-28.355-37.786-34.026c-7.223-4.896-16.052-8.188-26.459-9.903c1.61,0.134,5.271,0.045,11.728-1.839
			c0.814-0.238,1.558-0.653,2.314-0.994c18.905-8.611,28.358-25.276,28.358-49.979c0-16.089-4.421-29.608-13.261-40.56
			c-8.836-11.076-22.291-16.619-40.357-16.619c-6.463,0-14.838,0.462-25.127,1.387c-8.969,0.661-17.41,0.989-25.325,0.989V315.19
			h5.74c10.285,0,23.343,0.789,39.172,2.375v-3.564c-18.997-2.767-28.493-19.906-28.493-51.438v-46.881
			c7.779,2.5,15.764,6.853,23.938,13.051c7.653,6.074,19.394,17.544,35.22,34.43c10.812,11.606,20.08,21.067,27.804,28.389
			c7.705,7.319,14.074,12.762,19.084,16.316c9.361,6.466,20.441,9.697,33.238,9.697c4.355,0,8.766-0.79,13.254-2.375v-1.779
			c-9.627,0-19.716-4.085-30.269-12.263c-10.417-8.182-24.269-21.237-41.549-39.172c-24.529-25.726-43.983-40.821-58.357-45.307
			c23.21,0,36.884,12.66,61.419,37.984c20.44,20.837,35.803,34.82,46.093,41.939c10.946,7.52,21.432,11.275,31.458,11.275
			c8.705,0,15.652-2.956,20.815-8.896c0.08-0.089,0.409-0.42,1.385-1.867c0.267-0.398,1.331-1.909,1.331-2.23L673.254,294.021z
			 M490.753,204.008v-42.936c0-20.048,1.19-32.709,3.567-37.985c5.269-3.826,12.664-5.736,22.16-5.736
			c29.404,0,44.119,14.438,44.119,43.327c0,30.859-14.845,46.294-44.519,46.294C506.984,206.973,498.532,205.985,490.753,204.008z"
			/>
		<path fill="#FFFFFF" d="M572.661,120.909c8.838,10.952,13.259,24.471,13.259,40.56c0,17.661-4.858,31.191-14.521,40.628
			c18.741-8.767,29.397-22.971,29.397-42.605c0-20.613-12.538-35.738-35.029-45.373
			C568.309,116.089,570.613,118.344,572.661,120.909z"/>
	</g>
</g>
</svg>
