<?xml version="1.0" encoding="utf-8"?>
<!-- Generator: Adobe Illustrator 16.0.0, SVG Export Plug-In . SVG Version: 6.00 Build 0)  -->
<!DOCTYPE svg PUBLIC "-//W3C//DTD SVG 1.1//EN" "http://www.w3.org/Graphics/SVG/1.1/DTD/svg11.dtd">
<svg version="1.1" id="Capa_1" xmlns="http://www.w3.org/2000/svg" xmlns:xlink="http://www.w3.org/1999/xlink" x="0px" y="0px"
	 width="960px" height="560px" viewBox="0 0 960 560" enable-background="new 0 0 960 560" xml:space="preserve">
<g>
	<path fill="#FFFFFF" d="M384.885,306.398l-12.872,38.984h-16.552l42.112-123.94h19.308l42.292,123.94h-17.1l-13.241-38.984H384.885
		z M425.521,293.893l-12.137-35.673c-2.757-8.091-4.597-15.445-6.435-22.618h-0.368c-1.838,7.356-3.861,14.895-6.252,22.435
		l-12.139,35.856H425.521z"/>
	<path fill="#FFFFFF" d="M556.625,214.824h-8.091v130.559h16.183V222.914C564.718,218.446,561.096,214.824,556.625,214.824z"/>
	<g>
		<rect x="196.467" y="372.822" fill="#FFFFFF" width="69.101" height="21.289"/>
		<circle fill="#FFFFFF" cx="207.244" cy="291.893" r="13.694"/>
		<g>
			<rect x="237.986" y="261.936" fill="#FFFFFF" width="27.581" height="132.175"/>
			<polygon fill="#FFFFFF" points="176.494,240.701 148.917,240.701 127.365,240.701 127.365,261.936 148.917,261.936 
				176.494,261.936 237.986,261.936 237.986,240.701 			"/>
			<path fill="#FFFFFF" d="M265.567,256.371c-0.348-8.711-7.498-15.67-16.293-15.67h-11.288v21.235h27.581V256.371z"/>
			<path fill="#FFFFFF" d="M265.567,256.371c-0.348-8.711-7.498-15.67-16.293-15.67h-11.288v21.235h27.581V256.371z"/>
		</g>
		<path fill="#FFFFFF" d="M246.82,171.517c-8.691-3.538-20.535-5.939-31.019-5.939c-43.107,0-66.883,26.308-66.883,66.881v8.242
			v21.235v132.175h27.575V261.936v-21.235v-7.609c0-24.408,8.561-45.007,38.038-45.007c13.606,0,25.627,4.1,32.288,8.846V171.517z"
			/>
	</g>
	<path fill="#FFFFFF" d="M656.021,330.118c-6.067,2.576-13.056,4.6-24.639,4.6c-16.183,0-30.158-9.012-30.524-30.896h62.52
		c0.185-1.653,0.551-4.228,0.551-7.537c0-16.365-7.72-41.927-36.776-41.927c-25.928,0-41.743,21.147-41.743,47.993
		c0,26.848,16.366,44.869,43.764,44.869c12.101,0,20.965-2.147,26.847-4.381V330.118z M625.865,265.944
		c18.207,0,22.618,15.998,22.434,26.294h-47.257C602.329,281.022,609.5,265.944,625.865,265.944z"/>
	<path fill="#FFFFFF" d="M504.406,293.708c-11.585-4.41-16.918-7.721-16.918-15.076c0-6.62,5.333-12.137,14.894-12.137
		c8.275,0,14.711,2.941,18.204,5.148V257.86c-4.766-2.009-10.979-3.502-17.834-3.502c-19.127,0-30.711,11.77-30.711,26.112
		c0,10.666,7.54,19.492,23.54,25.191c11.948,4.414,16.546,8.644,16.546,16.366c0,7.356-5.517,13.24-17.285,13.24
		c-8.091,0-16.55-3.311-21.332-6.438v14.354c5.825,2.5,13.157,4.036,20.966,4.036c21.144,0,33.28-11.033,33.28-26.665
		C527.757,307.317,519.852,299.594,504.406,293.708z"/>
	<path fill="#FFFFFF" d="M753.36,265.827c0-5.217-4.229-9.445-9.446-9.445h-42.21v-4.414c0-14.157,4.963-26.112,22.065-26.112
		c7.907,0,14.894,2.393,18.757,5.151v-14.749c-5.045-2.059-11.928-3.457-18.021-3.457c-25.007,0-38.797,15.263-38.797,38.799v4.782
		h-12.507v12.321h12.507v76.68h15.996v-76.68h35.672v76.68h15.998v-79.459C753.373,265.888,753.36,265.862,753.36,265.827z"/>
	<path fill="#FFFFFF" d="M808.906,293.708c-11.585-4.41-16.918-7.721-16.918-15.076c0-6.62,5.333-12.137,14.893-12.137
		c8.278,0,14.711,2.941,18.207,5.148V257.86c-4.768-2.009-10.98-3.502-17.836-3.502c-19.125,0-30.709,11.77-30.709,26.112
		c0,10.666,7.537,19.492,23.537,25.191c11.952,4.414,16.549,8.644,16.549,16.366c0,7.356-5.516,13.24-17.287,13.24
		c-8.088,0-16.548-3.311-21.329-6.438v14.354c5.824,2.5,13.155,4.036,20.964,4.036c21.146,0,33.282-11.033,33.282-26.665
		C832.258,307.317,824.351,299.594,808.906,293.708z"/>
	<g>
		<path fill="#FFFFFF" d="M674.518,393.411c-0.985,0.494-2.958,1.012-5.473,1.012c-4.722,0-9.235-2.879-9.235-8.976
			c0-4.565,3.372-9.132,9.936-9.132c2.646,0,4.125,0.598,4.721,0.881l-0.415,1.064c-1.037-0.52-2.595-0.881-4.229-0.881
			c-5.681,0-8.691,3.449-8.691,8.171c0,4.307,2.879,7.783,8.38,7.783c1.711,0,3.423-0.337,4.617-0.935L674.518,393.411z"/>
		<path fill="#FFFFFF" d="M694.239,385.135c0,6.044-4.306,9.287-8.872,9.287c-4.98,0-8.69-3.709-8.69-8.819
			c0-5.5,3.89-9.288,8.872-9.288C690.685,376.315,694.239,380.103,694.239,385.135z M678,385.55c0,4.126,2.827,7.835,7.419,7.835
			c4.618,0,7.497-3.503,7.497-8.146c0-3.788-2.465-7.887-7.419-7.887C680.515,377.352,678,381.245,678,385.55z"/>
		<path fill="#FFFFFF" d="M698.163,394.111v-17.484h1.193l7.913,10.766c1.609,2.179,2.645,3.554,3.554,5.11l0.052-0.051
			c-0.181-2.022-0.208-4.099-0.208-6.796v-9.029h1.246v17.484h-1.167l-7.653-10.401c-1.479-2.025-2.828-3.867-3.763-5.424
			l-0.078,0.053c0.13,1.973,0.155,3.841,0.155,6.434v9.339H698.163z"/>
		<path fill="#FFFFFF" d="M716.536,392.063c1.141,0.778,2.646,1.298,4.332,1.298c2.828,0,4.54-1.506,4.54-3.659
			c0-1.998-1.011-3.141-3.943-4.074c-3.501-1.114-4.903-2.542-4.903-4.824c0-2.567,2.206-4.488,5.423-4.488
			c1.841,0,3.216,0.441,3.891,0.881l-0.493,1.064c-0.493-0.336-1.738-0.908-3.451-0.908c-3.139,0-4.125,1.895-4.125,3.271
			c0,1.867,1.115,2.932,3.943,3.838c3.19,1.039,4.903,2.284,4.903,5.11c0,2.415-1.765,4.852-5.941,4.852
			c-1.661,0-3.606-0.518-4.669-1.298L716.536,392.063z"/>
		<path fill="#FFFFFF" d="M732.158,376.626v10.093c0,4.746,2.36,6.642,5.266,6.642c3.243,0,5.551-2.025,5.551-6.642v-10.093h1.271
			v9.987c0,5.63-3.19,7.809-6.901,7.809c-3.398,0-6.46-1.971-6.46-7.678v-10.118H732.158z"/>
		<path fill="#FFFFFF" d="M749.467,376.626h1.271v16.421h8.665v1.063h-9.936V376.626z"/>
		<path fill="#FFFFFF" d="M764.464,377.691h-6.511v-1.064h14.295v1.064h-6.513v16.42h-1.271V377.691z"/>
		<path fill="#FFFFFF" d="M790.385,385.135c0,6.044-4.306,9.287-8.872,9.287c-4.98,0-8.69-3.709-8.69-8.819
			c0-5.5,3.891-9.288,8.872-9.288C786.832,376.315,790.385,380.103,790.385,385.135z M774.146,385.55
			c0,4.126,2.828,7.835,7.42,7.835c4.618,0,7.497-3.503,7.497-8.146c0-3.788-2.465-7.887-7.419-7.887
			C776.662,377.352,774.146,381.245,774.146,385.55z"/>
		<path fill="#FFFFFF" d="M794.31,376.86c1.194-0.233,2.906-0.389,4.254-0.389c2.491,0,4.047,0.52,5.112,1.556
			c0.751,0.701,1.245,1.868,1.245,3.063c0,2.31-1.478,3.891-3.605,4.538v0.053c1.425,0.492,2.36,1.817,2.775,3.554
			c0.648,2.752,1.012,4.127,1.426,4.877h-1.349c-0.286-0.492-0.674-2.022-1.167-4.201c-0.571-2.518-1.711-3.685-4.099-3.814h-3.32
			v8.016h-1.271V376.86z M795.581,385.058h3.373c2.88,0,4.696-1.504,4.696-3.763c0-2.801-2.309-3.787-5.11-3.787
			c-1.427,0-2.465,0.155-2.958,0.285V385.058z"/>
		<path fill="#FFFFFF" d="M818.259,385.421h-7.783v7.626h8.664v1.063h-9.935v-17.484h9.495v1.064h-8.224v6.666h7.783V385.421z"/>
		<path fill="#FFFFFF" d="M822.518,392.063c1.141,0.778,2.646,1.298,4.333,1.298c2.828,0,4.539-1.506,4.539-3.659
			c0-1.998-1.012-3.141-3.943-4.074c-3.501-1.114-4.903-2.542-4.903-4.824c0-2.567,2.205-4.488,5.423-4.488
			c1.841,0,3.216,0.441,3.891,0.881l-0.493,1.064c-0.493-0.336-1.738-0.908-3.451-0.908c-3.139,0-4.125,1.895-4.125,3.271
			c0,1.867,1.115,2.932,3.943,3.838c3.19,1.039,4.903,2.284,4.903,5.11c0,2.415-1.764,4.852-5.94,4.852
			c-1.661,0-3.607-0.518-4.67-1.298L822.518,392.063z"/>
	</g>
</g>
</svg>
