<?xml version="1.0" encoding="utf-8"?>
<!-- Generator: Adobe Illustrator 16.0.0, SVG Export Plug-In . SVG Version: 6.00 Build 0)  -->
<!DOCTYPE svg PUBLIC "-//W3C//DTD SVG 1.1//EN" "http://www.w3.org/Graphics/SVG/1.1/DTD/svg11.dtd">
<svg version="1.1" id="Capa_1" xmlns="http://www.w3.org/2000/svg" xmlns:xlink="http://www.w3.org/1999/xlink" x="0px" y="0px"
	 width="960px" height="560px" viewBox="0 0 960 560" enable-background="new 0 0 960 560" xml:space="preserve">
<g>
	<path fill="#FFFFFF" d="M480.375,73.087c-0.299-0.629-1.332-0.629-1.633,0c0,0-102.46,213.672-102.294,213.934
		c0.166,0.265,29.694,56.098,29.694,56.098l99.912-216.332L480.375,73.087z"/>
	<path fill="#FFFFFF" d="M504.054,236.013l51.799,107.106c0,0,27.836-55.677,27.699-55.96
		c-24.357-50.21-69.037-142.862-74.393-153.199l-26.247,56.83L504.054,236.013z"/>
	<polygon fill="#FFFFFF" points="477.249,289 406.141,343.119 477.249,343.119 	"/>
	<polygon fill="#FFFFFF" points="483.055,288.928 483.055,343.119 555.752,343.119 	"/>
	<g>
		<path fill="#FFFFFF" d="M340.185,430.763l-4.207,11.569h-27.805l34.584-81.901h27.807l33.298,81.901h-28.856l-4.089-11.569
			H340.185z M355.843,387.418l-8.649,23.95h17.061L355.843,387.418z"/>
		<path fill="#FFFFFF" d="M474.358,419.782v22.55h-61.221v-81.901h27.107v59.351H474.358z"/>
		<path fill="#FFFFFF" d="M514.046,380.993v14.136h36.336v20.563h-36.336v26.64h-27.106v-81.901h65.895v20.562H514.046z"/>
		<path fill="#FFFFFF" d="M588.152,430.763l-4.208,11.569h-27.806l34.584-81.901h27.807l33.298,81.901h-28.857l-4.09-11.569H588.152
			z M603.808,387.418l-8.648,23.95h17.061L603.808,387.418z"/>
	</g>
	<g>
		<path fill="#FFFFFF" d="M353.403,477.547h8.832l-4.381-10.557L353.403,477.547z M366.185,486.99l-2.226-5.314H351.68l-2.226,5.314
			h-4.99l11.022-25.133h4.992l10.878,25.133H366.185z"/>
		<path fill="#FFFFFF" d="M382.414,481.316c1.125,1.125,2.633,1.687,4.524,1.687s3.379-0.562,4.469-1.687
			c1.089-1.125,1.633-2.681,1.633-4.666v-14.793h4.812v14.793c0,2.177-0.443,4.074-1.329,5.689
			c-0.885,1.617-2.149,2.854-3.788,3.718c-1.639,0.86-3.572,1.291-5.798,1.291c-2.25,0-4.208-0.431-5.87-1.291
			c-1.665-0.864-2.94-2.101-3.825-3.718c-0.885-1.615-1.329-3.513-1.329-5.689v-14.793h4.812v14.793
			C380.727,478.636,381.288,480.191,382.414,481.316"/>
		<polygon fill="#FFFFFF" points="403.416,461.857 423.918,461.857 423.918,466.13 416.091,466.13 416.091,486.99 411.244,486.99 
			411.244,466.13 403.416,466.13 		"/>
		<path fill="#FFFFFF" d="M435.801,466.974c-1.315,0.753-2.356,1.784-3.122,3.088c-0.767,1.305-1.15,2.747-1.15,4.327
			c0,1.58,0.388,3.029,1.167,4.344c0.776,1.316,1.818,2.357,3.123,3.124c1.304,0.767,2.723,1.15,4.254,1.15
			c1.509,0,2.909-0.383,4.201-1.15c1.292-0.767,2.316-1.808,3.07-3.124c0.755-1.315,1.131-2.764,1.131-4.344
			c0-1.58-0.376-3.021-1.131-4.327c-0.754-1.304-1.777-2.334-3.07-3.088c-1.292-0.753-2.692-1.13-4.201-1.13
			C438.543,465.843,437.119,466.22,435.801,466.974 M446.806,463.223c2.047,1.126,3.657,2.667,4.831,4.63
			c1.171,1.962,1.758,4.142,1.758,6.535c0,2.394-0.587,4.578-1.758,6.553c-1.174,1.972-2.784,3.536-4.831,4.685
			c-2.046,1.147-4.313,1.723-6.804,1.723c-2.489,0-4.757-0.575-6.803-1.723c-2.047-1.148-3.656-2.713-4.829-4.685
			c-1.174-1.976-1.76-4.159-1.76-6.553c0-2.394,0.585-4.573,1.76-6.535c1.173-1.963,2.782-3.504,4.829-4.63
			c2.046-1.125,4.313-1.688,6.803-1.688C442.493,461.535,444.76,462.098,446.806,463.223"/>
		<path fill="#FFFFFF" d="M473.52,473.777c0.729-0.669,1.095-1.64,1.095-2.908c0-1.221-0.366-2.159-1.095-2.817
			c-0.731-0.659-1.767-0.988-3.106-0.988h-4.166v7.719h4.166C471.753,474.782,472.789,474.448,473.52,473.777 M478.205,464.136
			c1.771,1.544,2.657,3.717,2.657,6.516c0,2.97-0.887,5.274-2.657,6.914c-1.772,1.64-4.261,2.459-7.469,2.459h-4.488v6.965h-6.569
			V461.82h11.057C473.944,461.82,476.433,462.594,478.205,464.136"/>
		<path fill="#FFFFFF" d="M492.747,477.513h6.965l-3.447-8.979L492.747,477.513z M503.374,486.99l-1.723-4.452h-10.878l-1.76,4.452
			h-6.75l10.807-25.169h6.75l10.556,25.169H503.374z"/>
		<path fill="#FFFFFF" d="M521.899,474.782h4.774c1.34,0,2.376-0.333,3.107-1.005c0.731-0.669,1.095-1.64,1.095-2.908
			c0-1.221-0.364-2.159-1.095-2.817c-0.731-0.659-1.767-0.988-3.107-0.988h-4.774V474.782z M530.444,486.99l-3.662-6.967h-0.144
			h-4.739v6.967h-6.568V461.82h11.308c3.326,0,5.907,0.772,7.737,2.315c1.831,1.544,2.748,3.717,2.748,6.516
			c0,1.894-0.385,3.527-1.15,4.902c-0.766,1.377-1.879,2.447-3.338,3.214l5.244,8.222H530.444z"/>
		<polygon fill="#FFFFFF" points="541.825,461.82 563.404,461.82 563.404,467.244 555.864,467.244 555.864,486.99 549.294,486.99 
			549.294,467.244 541.825,467.244 		"/>
		<polygon fill="#FFFFFF" points="568.755,461.82 588.609,461.82 588.609,467.063 575.325,467.063 575.325,471.768 587.317,471.768 
			587.317,476.973 575.325,477.009 575.325,481.749 588.969,481.749 588.969,486.99 568.755,486.99 		"/>
		<path fill="#FFFFFF" d="M608.732,467.458c-1.519-0.501-2.794-0.754-3.823-0.754c-0.814,0-1.454,0.151-1.919,0.449
			c-0.468,0.301-0.702,0.737-0.702,1.31c0,0.552,0.203,1.014,0.61,1.385c0.407,0.369,0.909,0.669,1.507,0.896
			c0.6,0.227,1.486,0.52,2.659,0.879c1.746,0.503,3.187,1.004,4.325,1.508c1.136,0.504,2.113,1.275,2.927,2.315
			c0.813,1.041,1.221,2.4,1.221,4.077c0,1.675-0.443,3.105-1.331,4.291c-0.885,1.184-2.099,2.077-3.643,2.674
			c-1.545,0.599-3.263,0.898-5.153,0.898c-2.082,0-4.159-0.365-6.229-1.096c-2.072-0.729-3.861-1.727-5.368-2.997l2.55-5.134
			c1.266,1.124,2.77,2.046,4.505,2.764c1.735,0.717,3.272,1.076,4.614,1.076c0.979,0,1.751-0.178,2.316-0.538
			c0.562-0.359,0.842-0.885,0.842-1.581c0-0.573-0.209-1.053-0.627-1.435c-0.419-0.383-0.946-0.689-1.58-0.917
			c-0.636-0.225-1.526-0.495-2.674-0.805c-1.724-0.48-3.149-0.964-4.275-1.455c-1.124-0.491-2.087-1.232-2.889-2.228
			c-0.802-0.993-1.202-2.315-1.202-3.965c0-1.557,0.412-2.921,1.237-4.093c0.828-1.173,1.999-2.078,3.52-2.711
			c1.521-0.635,3.286-0.951,5.297-0.951c1.817,0,3.613,0.256,5.385,0.77c1.771,0.517,3.328,1.203,4.668,2.065l-2.479,5.242
			C611.682,468.606,610.251,467.961,608.732,467.458"/>
	</g>
</g>
</svg>
