<svg id="Capa_1" data-name="Capa 1" xmlns="http://www.w3.org/2000/svg" xmlns:xlink="http://www.w3.org/1999/xlink" viewBox="0 0 1351.02 171.78"><defs><style>.cls-1{fill:#78a42c;}.cls-2{fill:#2fb1a7;}.cls-3{fill:url(#Degradado_sin_nombre);}.cls-4{fill:url(#Degradado_sin_nombre_2);}</style><linearGradient id="Degradado_sin_nombre" x1="249.59" y1="166.97" x2="432.17" y2="166.97" gradientTransform="matrix(1, 0, 0, -1, 0, 334.08)" gradientUnits="userSpaceOnUse"><stop offset="0" stop-color="#2fb1a7"/><stop offset="1" stop-color="#78a42c"/></linearGradient><linearGradient id="Degradado_sin_nombre_2" x1="67.92" y1="166.97" x2="231.11" y2="166.97" xlink:href="#Degradado_sin_nombre"/></defs><title>logo_azul</title><path class="cls-1" d="M490,119.6h37.91c30.54,0,51.65,21,51.65,48.32v.28c0,27.35-21.11,48.61-51.65,48.61H490Zm21.39,19.31V197.5h16.52c17.5,0,29.29-11.8,29.29-29v-.28c0-17.21-11.79-29.29-29.29-29.29Z" transform="translate(-67.92 -81.22)"/><path class="cls-1" d="M589.88,195.42v-.29c0-16.24,12.35-23.74,30-23.74a53,53,0,0,1,18.19,3.06V173.2c0-8.75-5.41-13.61-16-13.61-8.05,0-13.74,1.53-20.55,4l-5.29-16.11c8.19-3.6,16.25-6,28.89-6,11.52,0,19.85,3.06,25.14,8.33,5.55,5.55,8,13.75,8,23.75v43.19H637.93v-8.07c-5.15,5.7-12.24,9.44-22.51,9.44C601.39,218.18,589.88,210.13,589.88,195.42Zm48.45-4.87v-3.74A32.89,32.89,0,0,0,624.86,184c-9,0-14.58,3.61-14.58,10.28v.27c0,5.7,4.72,9,11.53,9C631.67,203.6,638.33,198.19,638.33,190.55Z" transform="translate(-67.92 -81.22)"/><path class="cls-1" d="M677.34,165.58H668.6V148.22h8.74V143.5c0-8.19,2.1-14.16,6-18s9.59-5.84,17.08-5.84a47,47,0,0,1,15,2.09v17.5a26.55,26.55,0,0,0-9.58-1.81c-4.86,0-7.63,2.5-7.63,8.05v2.92h17.08v17.22h-16.8V216.8H677.34Z" transform="translate(-67.92 -81.22)"/><path class="cls-1" d="M734.63,196v-30.1h-8.89V147.83h8.89v-19h21.09v19h17.5v18.06h-17.5v26.63c0,4.87,2.1,7.23,6.81,7.23A21.59,21.59,0,0,0,773,197.12v16.93a31.09,31.09,0,0,1-16.66,4.31C743.37,218.36,734.63,213.22,734.63,196Z" transform="translate(-67.92 -81.22)"/><path class="cls-1" d="M782.61,180v-.27c0-21.38,17.22-38.74,40.42-38.74s40.12,17.08,40.12,38.45v.29c0,21.38-17.23,38.74-40.4,38.74S782.61,201.39,782.61,180Zm59.7,0v-.27c0-11-7.92-20.55-19.56-20.55-12.08,0-19.31,9.3-19.31,20.27v.28c0,11,7.92,20.55,19.59,20.55C835.1,200.28,842.31,191,842.31,180Z" transform="translate(-67.92 -81.22)"/><path class="cls-1" d="M872.63,142.37h21.09v10.56c4.87-6.25,11.12-11.94,21.8-11.94,16,0,25.28,10.55,25.28,27.62V216.8H919.68V175.28c0-10-4.71-15.13-12.77-15.13s-13.19,5.13-13.19,15.13V216.8H872.63V142.37Z" transform="translate(-67.92 -81.22)"/><path class="cls-2" d="M955.54,120.92h23.05L1004.12,162l25.55-41.09h23v97.17h-21.23V154.66l-27.36,41.51h-.55L976.5,155.06v63h-21V120.92Z" transform="translate(-67.92 -81.22)"/><path class="cls-2" d="M1072.59,120.92h73.29v19h-52.06v19.73h45.82v19h-45.82v20.4h52.75v19h-74V120.92Z" transform="translate(-67.92 -81.22)"/><path class="cls-2" d="M1166.6,120.92h37.89c30.54,0,51.65,21,51.65,48.31v.28c0,27.35-21.11,48.58-51.65,48.58H1166.6ZM1188,140.21v58.58h16.51c17.5,0,29.3-11.8,29.3-29v-.27c0-17.22-11.8-29.3-29.3-29.3Z" transform="translate(-67.92 -81.22)"/><path class="cls-2" d="M1275.89,120.92h21.38v97.17h-21.38Z" transform="translate(-67.92 -81.22)"/><path class="cls-2" d="M1357.58,120.23h19.71l41.65,97.86h-22.35l-8.89-21.79h-41.08l-8.88,21.79h-21.81Zm22.49,57.18-12.9-31.5-12.93,31.5Z" transform="translate(-67.92 -81.22)"/><path class="cls-3" d="M414.17,99.22V221.9l-64.39-37-9-5.15-9,5.16-64.25,36.94V99.22H414.17m18-18H249.59V253l91.22-52.45L432.17,253V81.22Z" transform="translate(-67.92 -81.22)"/><path class="cls-4" d="M134.43,99.22c24.89,0,45.34,6.63,59.14,19.18,12.78,11.62,19.54,28.12,19.54,47.72v.49c0,19.75-6.9,36.53-19.93,48.55-14.1,13-34.75,19.84-59.73,19.84H85.92V99.22h48.51m0-18H67.92V253h65.53c61.58,0,97.66-36.8,97.66-86.38v-.49c0-49.56-35.58-84.9-96.68-84.9Z" transform="translate(-67.92 -81.22)"/><path class="cls-1" d="M1397.34,131.14v-.07a10.87,10.87,0,0,1,10.83-10.84A10.76,10.76,0,0,1,1418.93,131v0a10.8,10.8,0,1,1-21.59.07Zm20.35-.07v0a9.55,9.55,0,1,0-19.09,0v.07a9.55,9.55,0,1,0,19.09-.07Zm-14.29-6h5.37a5.16,5.16,0,0,1,3.84,1.29,3.44,3.44,0,0,1,1,2.61V129a3.59,3.59,0,0,1-2.36,3.49l2.75,4h-3.67L1408,133h-1.4v3.48h-3.19Zm5.28,5.52c1.11,0,1.74-.53,1.74-1.37v-.07c0-.89-.7-1.36-1.74-1.36h-2.09v2.8Z" transform="translate(-67.92 -81.22)"/></svg>