<?xml version="1.0" encoding="utf-8"?>
<!-- Generator: Adobe Illustrator 16.0.0, SVG Export Plug-In . SVG Version: 6.00 Build 0)  -->
<!DOCTYPE svg PUBLIC "-//W3C//DTD SVG 1.1//EN" "http://www.w3.org/Graphics/SVG/1.1/DTD/svg11.dtd">
<svg version="1.1" id="Capa_1" xmlns="http://www.w3.org/2000/svg" xmlns:xlink="http://www.w3.org/1999/xlink" x="0px" y="0px"
	 width="1486.863px" height="334.211px" viewBox="0 0 1486.863 334.211" enable-background="new 0 0 1486.863 334.211"
	 xml:space="preserve">
<g>
	<g>
		<path fill="#0FB6EB" d="M489.998,119.598h37.914c30.539,0,51.645,20.971,51.645,48.32v0.283c0,27.35-21.105,48.604-51.645,48.604
			h-37.914V119.598z M511.387,138.906v58.59h16.525c17.498,0,29.283-11.797,29.283-29.012v-0.283
			c0-17.215-11.785-29.295-29.283-29.295H511.387z"/>
		<path fill="#0FB6EB" d="M589.877,195.416v-0.283c0-16.242,12.35-23.742,29.984-23.742c7.498,0,12.916,1.256,18.188,3.055v-1.244
			c0-8.756-5.406-13.607-15.959-13.607c-8.055,0-13.742,1.527-20.553,4.027l-5.283-16.107c8.189-3.607,16.242-5.973,28.889-5.973
			c11.514,0,19.852,3.055,25.133,8.324c5.555,5.555,8.041,13.756,8.041,23.754v43.186h-20.391v-8.064
			c-5.148,5.701-12.24,9.443-22.51,9.443C601.389,218.184,589.877,210.131,589.877,195.416z M638.332,190.551v-3.742
			c-3.621-1.662-8.338-2.783-13.473-2.783c-9.025,0-14.578,3.619-14.578,10.281v0.271c0,5.701,4.715,9.025,11.525,9.025
			C631.67,203.604,638.332,198.186,638.332,190.551z"/>
		<path fill="#0FB6EB" d="M677.342,165.578H668.6v-17.361h8.742V143.5c0-8.189,2.094-14.162,5.973-18.053
			c3.891-3.879,9.594-5.836,17.08-5.836c6.662,0,11.107,0.85,14.998,2.092v17.5c-3.055-1.121-5.984-1.811-9.58-1.811
			c-4.863,0-7.635,2.5-7.635,8.053v2.918h17.08v17.215h-16.797v51.227h-21.119V165.578z"/>
		<path fill="#0FB6EB" d="M734.627,195.994v-30.107h-8.891v-18.053h8.891v-19.025h21.094v19.025h17.498v18.053h-17.498v26.635
			c0,4.865,2.094,7.229,6.811,7.229c3.891,0,7.352-0.973,10.418-2.635v16.932c-4.445,2.646-9.582,4.311-16.662,4.311
			C743.371,218.357,734.627,213.223,734.627,195.994z"/>
		<path fill="#0FB6EB" d="M782.615,179.998v-0.27c0-21.379,17.215-38.74,40.414-38.74c23.053,0,40.119,17.078,40.119,38.457v0.283
			c0,21.377-17.227,38.738-40.402,38.738C799.682,218.467,782.615,201.389,782.615,179.998z M842.313,179.998v-0.27
			c0-10.973-7.918-20.553-19.566-20.553c-12.08,0-19.309,9.309-19.309,20.27v0.283c0,10.959,7.918,20.551,19.592,20.551
			C835.098,200.279,842.313,190.971,842.313,179.998z"/>
		<path fill="#0FB6EB" d="M872.631,142.367h21.094v10.564c4.863-6.254,11.119-11.943,21.795-11.943
			c15.973,0,25.281,10.553,25.281,27.619v48.197h-21.119v-41.521c0-10-4.715-15.135-12.77-15.135
			c-8.041,0-13.188,5.135-13.188,15.135v41.521h-21.094V142.367z"/>
	</g>
	<g>
		<path fill="#5E2A84" d="M955.541,120.916h23.051l25.527,41.092l25.551-41.092h23.041v97.17h-21.23v-63.43l-27.361,41.51h-0.555
			l-27.066-41.104v63.023h-20.957V120.916z"/>
		<path fill="#5E2A84" d="M1072.586,120.916h73.293v19.014h-52.064v19.727h45.82v19.012h-45.82v20.404h52.754v19.014h-73.982
			V120.916z"/>
		<path fill="#5E2A84" d="M1166.604,120.916h37.889c30.539,0,51.646,20.971,51.646,48.309v0.283
			c0,27.348-21.107,48.578-51.646,48.578h-37.889V120.916z M1187.98,140.213v58.576h16.512c17.498,0,29.295-11.797,29.295-29.012
			v-0.27c0-17.217-11.797-29.295-29.295-29.295H1187.98z"/>
		<path fill="#5E2A84" d="M1275.889,120.916h21.377v97.17h-21.377V120.916z"/>
		<path fill="#5E2A84" d="M1357.58,120.227h19.715l41.646,97.859h-22.35l-8.891-21.783h-41.08l-8.879,21.783h-21.807
			L1357.58,120.227z M1380.066,177.412l-12.893-31.498l-12.93,31.498H1380.066z"/>
	</g>
	<g>
		<linearGradient id="SVGID_1_" gradientUnits="userSpaceOnUse" x1="249.5898" y1="167.1045" x2="432.1699" y2="167.1045">
			<stop  offset="0" style="stop-color:#0FB6EB"/>
			<stop  offset="1" style="stop-color:#5E2A84"/>
		</linearGradient>
		<path fill="url(#SVGID_1_)" d="M414.17,99.215v122.689l-64.395-36.975l-8.97-5.15l-8.966,5.156l-64.25,36.945V99.215h32.303
			h81.963H414.17 M432.17,81.215h-50.314h-81.963H249.59v171.78l91.223-52.456l91.357,52.456V81.215L432.17,81.215z"/>
		<g>
			<linearGradient id="SVGID_2_" gradientUnits="userSpaceOnUse" x1="67.9219" y1="167.1045" x2="231.1074" y2="167.1045">
				<stop  offset="0" style="stop-color:#0FB6EB"/>
				<stop  offset="1" style="stop-color:#5E2A84"/>
			</linearGradient>
			<path fill="url(#SVGID_2_)" d="M134.43,99.215c24.888,0,45.339,6.634,59.143,19.185c12.78,11.62,19.535,28.122,19.535,47.722
				v0.492c0,19.746-6.893,36.531-19.933,48.543c-14.091,12.979-34.745,19.839-59.729,19.839H85.922V99.215H134.43 M134.43,81.215
				H67.922v171.78h65.523c61.582,0,97.662-36.806,97.662-86.382v-0.492C231.107,116.557,195.531,81.215,134.43,81.215L134.43,81.215
				z"/>
		</g>
	</g>
	<g>
		<path fill="#0FB6EB" d="M1397.342,131.137v-0.063c0-5.861,4.779-10.848,10.824-10.848c6.059,0,10.764,4.912,10.764,10.799v0.049
			c0,5.875-4.766,10.861-10.813,10.861C1402.059,141.936,1397.342,137.01,1397.342,131.137z M1417.686,131.074v-0.049
			c0-5.283-4.088-9.605-9.52-9.605c-5.441,0-9.568,4.385-9.568,9.654v0.063c0,5.283,4.09,9.568,9.52,9.568
			C1413.572,140.705,1417.686,136.369,1417.686,131.074z M1403.4,125.029h5.369c1.799,0,3.041,0.48,3.842,1.293
			c0.666,0.641,0.986,1.514,0.986,2.609v0.063c0,1.725-0.924,2.893-2.354,3.484l2.746,4.027h-3.668l-2.328-3.484h-1.404v3.484
			h-3.189V125.029z M1408.684,130.545c1.107,0,1.736-0.529,1.736-1.367v-0.072c0-0.887-0.701-1.355-1.736-1.355h-2.094v2.795
			H1408.684z"/>
	</g>
</g>
</svg>
