<svg id="Capa_1" data-name="Capa 1" xmlns="http://www.w3.org/2000/svg" viewBox="0 0 379.87 431.48"><defs><style>.cls-1{fill:#fff;}.cls-2{fill:none;stroke:#fff;stroke-linejoin:round;stroke-width:5px;}</style></defs><title>logo_blanco_full</title><path class="cls-1" d="M78.5,320.6H110c25.4,0,43,17.43,43,40.18V361c0,22.75-17.56,40.42-43,40.42H78.5Zm17.79,16v48.72H110c14.55,0,24.36-9.81,24.36-24.13V361c0-14.31-9.81-24.36-24.36-24.36Z" transform="translate(-76.05 -76.02)"/><path class="cls-1" d="M161.55,383.64v-.23c0-13.51,10.27-19.74,24.94-19.74a44,44,0,0,1,15.12,2.54v-1c0-7.27-4.5-11.32-13.27-11.32a45.69,45.69,0,0,0-17.09,3.35l-4.39-13.39a54.63,54.63,0,0,1,24-5c9.58,0,16.5,2.54,20.89,6.93,4.62,4.62,6.7,11.43,6.7,19.74v35.92h-17v-6.7c-4.27,4.73-10.16,7.85-18.71,7.85C171.13,402.57,161.55,395.88,161.55,383.64Zm40.29-4v-3.12a27.27,27.27,0,0,0-11.2-2.31c-7.5,0-12.12,3-12.12,8.55V383c0,4.73,3.93,7.5,9.58,7.5C196.3,390.45,201.84,386,201.84,379.6Z" transform="translate(-76.05 -76.02)"/><path class="cls-1" d="M234.29,358.83H227V344.39h7.27v-3.92c0-6.81,1.73-11.78,5-15s8-4.85,14.2-4.85a38.87,38.87,0,0,1,12.47,1.73v14.55a22.12,22.12,0,0,0-8-1.5c-4,0-6.35,2.08-6.35,6.69v2.43h14.2v14.32h-14v42.59H234.29V358.83Z" transform="translate(-76.05 -76.02)"/><path class="cls-1" d="M281.92,384.13V359.08h-7.39v-15h7.39V328.26h17.55v15.81H314v15H299.47v22.16c0,4,1.74,6,5.66,6a17.81,17.81,0,0,0,8.66-2.2v14.09a25.93,25.93,0,0,1-13.86,3.58C289.19,402.72,281.92,398.45,281.92,384.13Z" transform="translate(-76.05 -76.02)"/><path class="cls-1" d="M321.83,370.82v-.23c0-17.77,14.32-32.21,33.6-32.21s33.37,14.2,33.37,32v.23c0,17.78-14.32,32.22-33.6,32.22S321.83,388.61,321.83,370.82Zm49.65,0v-.23c0-9.12-6.59-17.08-16.28-17.08-10.05,0-16.05,7.73-16.05,16.85v.23c0,9.12,6.58,17.09,16.28,17.09C365.48,387.68,371.48,380,371.48,370.82Z" transform="translate(-76.05 -76.02)"/><path class="cls-1" d="M396.67,339.53h17.55v8.78c4-5.2,9.24-9.93,18.13-9.93,13.28,0,21,8.77,21,23v40.07H435.81V366.9c0-8.32-3.93-12.59-10.62-12.59s-11,4.27-11,12.59v34.52H396.67Z" transform="translate(-76.05 -76.02)"/><path class="cls-1" d="M78.5,428.89H97.14l20.67,33.24,20.66-33.24h18.64V507.5H139.93V456.18l-22.12,33.57h-.46L95.46,456.52v51h-17Z" transform="translate(-76.05 -76.02)"/><path class="cls-1" d="M173.18,428.89h59.3v15.38H190.36v16h37.06V475.6H190.36v16.51H233V507.5H173.18Z" transform="translate(-76.05 -76.02)"/><path class="cls-1" d="M249.24,428.89h30.65c24.71,0,41.78,17,41.78,39.08v.23c0,22.12-17.07,39.3-41.78,39.3H249.24V428.89Zm17.29,15.61v47.39h13.36c14.15,0,23.7-9.54,23.7-23.47v-.23c0-13.92-9.55-23.69-23.7-23.69Z" transform="translate(-76.05 -76.02)"/><path class="cls-1" d="M337.65,428.89h17.28V507.5H337.65Z" transform="translate(-76.05 -76.02)"/><path class="cls-1" d="M403.73,428.33h15.95l33.68,79.17H435.29l-7.19-17.64H394.86l-7.19,17.64H370Zm18.19,46.27-10.44-25.5L401,474.6Z" transform="translate(-76.05 -76.02)"/><polygon class="cls-2" points="283.35 125.3 189.47 179.28 189.47 79.87 283.35 125.3"/><polygon class="cls-2" points="377.37 2.5 377.37 52.63 283.35 2.5 325.6 2.5 377.37 2.5"/><polygon class="cls-2" points="377.37 52.63 377.37 179.28 283.35 125.3 283.35 2.5 377.37 52.63"/><polygon class="cls-2" points="283.35 2.5 283.35 125.3 189.47 79.87 189.47 2.5 241.24 2.5 283.35 2.5"/><path class="cls-2" d="M246.5,165.9v.51c0,51-37.12,88.89-100.51,88.89H78.55L194.28,138.9l30.86-31.05C239.06,122.9,246.5,142.91,246.5,165.9Z" transform="translate(-76.05 -76.02)"/><path class="cls-2" d="M225.14,107.85,194.28,138.9,134,78.52h13C181.55,78.52,208.17,89.5,225.14,107.85Z" transform="translate(-76.05 -76.02)"/><polygon class="cls-2" points="57.93 2.5 118.23 62.88 2.5 179.28 2.5 2.5 57.93 2.5"/><path class="cls-1" d="M435.8,437.21v0a8.79,8.79,0,1,1,17.57-.05v.05a8.79,8.79,0,1,1-17.57,0Zm16.55,0v-.05a7.77,7.77,0,1,0-15.53.05v0a7.77,7.77,0,1,0,15.53,0Zm-11.62-4.93h4.36a4.26,4.26,0,0,1,3.13,1,2.87,2.87,0,0,1,.8,2.14v.05a2.93,2.93,0,0,1-1.91,2.84l2.23,3.27h-3l-1.9-2.84h-1.14v2.84h-2.6v-9.34Zm4.29,4.49c.9,0,1.41-.44,1.41-1.12v0c0-.73-.56-1.12-1.41-1.12h-1.7v2.28Z" transform="translate(-76.05 -76.02)"/></svg>